<svg width="56" height="56" viewBox="0 0 56 56" fill="none" xmlns="http://www.w3.org/2000/svg">
<g clip-path="url(#clip0_1_13736)">
<path d="M45.4212 55.9594H10.5791C10.6332 54.8782 10.695 53.7958 10.7644 52.7146C10.9773 49.3853 13.5883 46.7089 16.9113 46.4027C24.3044 45.7209 31.6974 45.7209 39.0904 46.4027C42.4121 46.7089 45.0243 49.3853 45.236 52.7146C45.3052 53.7958 45.367 54.8781 45.4212 55.9594Z" fill="#90D8F9"/>
<path d="M24.2467 45.9503C24.0056 45.9718 23.7645 45.9931 23.5233 46.0156C19.9166 46.348 17.0817 49.2539 16.8495 52.8686C16.7841 53.8985 16.7243 54.9295 16.6714 55.9593H10.5791C10.6331 54.8788 10.6951 53.796 10.7639 52.7143C10.9769 49.3858 13.5876 46.7086 16.9116 46.4033C19.3566 46.1778 21.8016 46.0269 24.2467 45.9503Z" fill="#75CEF9"/>
<path d="M31.9718 40.1959V45.5165C31.9718 47.7103 30.1938 49.4883 27.9999 49.4883C25.8061 49.4883 24.0281 47.7103 24.0281 45.5165V40.1959H31.9718Z" fill="#407093"/>
<path d="M29.1244 49.3261C28.7683 49.432 28.3909 49.4883 27.9999 49.4883C25.8062 49.4883 24.0281 47.7103 24.0281 45.5165V40.1959H26.2772V45.5165C26.2772 47.3193 27.4782 48.8416 29.1244 49.3261Z" fill="#365E7D"/>
<path d="M31.9718 40.1959V45.379C29.3239 45.424 26.6759 45.424 24.0281 45.379V40.1959H31.9718Z" fill="#365E7D"/>
<path d="M18.6447 6.66549C20.4741 6.66549 21.9571 5.18247 21.9571 3.35307C21.9571 1.52367 20.4741 0.0406494 18.6447 0.0406494C16.8153 0.0406494 15.3323 1.52367 15.3323 3.35307C15.3323 5.18247 16.8153 6.66549 18.6447 6.66549Z" fill="#DD636E"/>
<path d="M28.0002 6.66549C29.8296 6.66549 31.3126 5.18247 31.3126 3.35307C31.3126 1.52367 29.8296 0.0406494 28.0002 0.0406494C26.1708 0.0406494 24.6877 1.52367 24.6877 3.35307C24.6877 5.18247 26.1708 6.66549 28.0002 6.66549Z" fill="#DD636E"/>
<path d="M37.3554 6.66549C39.1848 6.66549 40.6678 5.18247 40.6678 3.35307C40.6678 1.52367 39.1848 0.0406494 37.3554 0.0406494C35.526 0.0406494 34.043 1.52367 34.043 3.35307C34.043 5.18247 35.526 6.66549 37.3554 6.66549Z" fill="#DD636E"/>
<path d="M19.6565 6.50821C19.3377 6.61081 18.9973 6.66593 18.6447 6.66593C16.8148 6.66593 15.332 5.18313 15.332 3.35329C15.332 1.52454 16.8148 0.0406494 18.6447 0.0406494C18.9973 0.0406494 19.3377 0.0958838 19.6565 0.198368C18.3213 0.625368 17.3557 1.87727 17.3557 3.35329C17.3557 4.8304 18.3213 6.0811 19.6565 6.50821Z" fill="#DA4A54"/>
<path d="M29.012 6.50821C28.6931 6.61081 28.3528 6.66593 28.0001 6.66593C26.1703 6.66593 24.6875 5.18313 24.6875 3.35329C24.6875 1.52454 26.1703 0.0406494 28.0001 0.0406494C28.3528 0.0406494 28.6931 0.0958838 29.012 0.198368C27.6767 0.625368 26.7112 1.87727 26.7112 3.35329C26.7112 4.8304 27.6767 6.0811 29.012 6.50821Z" fill="#DA4A54"/>
<path d="M38.3674 6.50821C38.0486 6.61081 37.7082 6.66593 37.3556 6.66593C35.5258 6.66593 34.043 5.18313 34.043 3.35329C34.043 1.52454 35.5258 0.0406494 37.3556 0.0406494C37.7082 0.0406494 38.0486 0.0958838 38.3674 0.198368C37.0322 0.625368 36.0666 1.87727 36.0666 3.35329C36.0666 4.8304 37.0322 6.0811 38.3674 6.50821Z" fill="#DA4A54"/>
<path d="M51.8959 13.2105C35.9654 12.8314 20.0347 12.8314 4.10411 13.2105C2.38571 13.2514 0.884105 14.4193 0.457324 16.0843C-0.152441 18.4638 -0.152441 20.8433 0.457324 23.2228C0.883996 24.8878 2.38571 26.0557 4.10411 26.0966C20.0347 26.4757 35.9654 26.4757 51.8959 26.0966C53.6143 26.0557 55.1159 24.8878 55.5426 23.2228C56.1524 20.8433 56.1524 18.4638 55.5426 16.0843C55.1159 14.4193 53.6143 13.2514 51.8959 13.2105Z" fill="#407093"/>
<path d="M55.8392 21.7725C55.7661 22.2559 55.6674 22.7393 55.543 23.2227C55.116 24.8883 53.6145 26.0565 51.8962 26.0963C35.9653 26.4758 20.0345 26.4758 4.10361 26.0963C2.38533 26.0566 0.883832 24.8883 0.456832 23.2227C0.332473 22.7392 0.233707 22.2558 0.160645 21.7725C0.885145 22.1392 1.98918 22.3687 3.19449 22.3803C19.7319 22.5405 36.268 22.5405 52.8053 22.3803C54.0108 22.3687 55.1148 22.1392 55.8392 21.7725Z" fill="#365E7D"/>
<path d="M43.7689 3.6131C33.2563 2.90468 22.7435 2.90468 12.2308 3.6131C8.46728 3.86674 5.45663 6.83628 5.139 10.5948C4.42697 19.0219 4.42697 27.449 5.139 35.876C5.45663 39.6346 8.46728 42.6042 12.2308 42.8577C22.7435 43.5662 33.2563 43.5662 43.7689 42.8577C47.5324 42.6041 50.5431 39.6346 50.8607 35.876C51.5727 27.449 51.5727 19.0219 50.8607 10.5948C50.5431 6.83628 47.5324 3.86663 43.7689 3.6131Z" fill="#90D8F9"/>
<path d="M13.0596 42.9115C12.7827 42.8949 12.5069 42.8756 12.2312 42.8577C8.46772 42.6039 5.45706 39.6341 5.139 35.8758C4.4273 27.4487 4.4273 19.0216 5.139 10.5946C5.45696 6.83626 8.46772 3.86651 12.2312 3.61265C12.5069 3.59471 12.7826 3.57546 13.0596 3.55884C10.5361 4.72817 8.73197 7.18626 8.48577 10.0996C7.74585 18.8561 7.74585 27.614 8.48577 36.3719C8.73197 39.2853 10.5361 41.7421 13.0596 42.9115Z" fill="#75CEF9"/>
<path d="M42.4655 7.60659C32.8218 6.9674 23.1782 6.9674 13.5345 7.60659C11.617 7.73368 10.0624 9.21221 9.84916 11.1221C9.11864 17.6626 9.11864 24.203 9.84916 30.7436C10.0624 32.6535 11.617 34.132 13.5345 34.2591C23.1782 34.8983 32.8218 34.8983 42.4655 34.2591C44.3831 34.132 45.9377 32.6535 46.1509 30.7436C46.8815 24.203 46.8815 17.6625 46.1509 11.1221C45.9377 9.21221 44.3831 7.73368 42.4655 7.60659Z" fill="#DAEEFA"/>
<path d="M14.7551 34.3358C14.3487 34.3114 13.941 34.2858 13.5344 34.2589C11.6174 34.1319 10.0621 32.6535 9.84924 30.7442C9.11829 24.2034 9.11829 17.6625 9.84924 11.1217C10.0621 9.21245 11.6175 7.73392 13.5344 7.60704C13.9422 7.58014 14.3499 7.55443 14.7577 7.53015C13.5972 8.1572 12.7701 9.32281 12.6163 10.7038C11.8546 17.5229 11.8546 24.3433 12.6163 31.1624C12.7702 32.5431 13.596 33.7074 14.7551 34.3358Z" fill="#C0E3F8"/>
<path d="M18.1552 17.8529C20.0863 17.8529 21.6517 16.2874 21.6517 14.3564C21.6517 12.4253 20.0863 10.8599 18.1552 10.8599C16.2241 10.8599 14.6587 12.4253 14.6587 14.3564C14.6587 16.2874 16.2241 17.8529 18.1552 17.8529Z" fill="#90D8F9"/>
<path d="M37.8451 17.8529C39.7762 17.8529 41.3416 16.2874 41.3416 14.3564C41.3416 12.4253 39.7762 10.8599 37.8451 10.8599C35.9141 10.8599 34.3486 12.4253 34.3486 14.3564C34.3486 16.2874 35.9141 17.8529 37.8451 17.8529Z" fill="#90D8F9"/>
<path d="M19.6378 17.5235C19.1877 17.735 18.685 17.8531 18.1554 17.8531C16.2243 17.8531 14.6587 16.2874 14.6587 14.3563C14.6587 12.4253 16.2243 10.8596 18.1554 10.8596C18.685 10.8596 19.1877 10.9776 19.6378 11.1892C18.4478 11.747 17.6233 12.9548 17.6233 14.3563C17.6233 15.7579 18.4478 16.9657 19.6378 17.5235Z" fill="#75CEF9"/>
<path d="M39.3282 17.5235C38.8781 17.735 38.3754 17.8531 37.8458 17.8531C35.9147 17.8531 34.3491 16.2874 34.3491 14.3563C34.3491 12.4253 35.9147 10.8596 37.8458 10.8596C38.3754 10.8596 38.8781 10.9776 39.3282 11.1892C38.137 11.7457 37.3124 12.9548 37.3124 14.3563C37.3124 15.7579 38.137 16.967 39.3282 17.5235Z" fill="#75CEF9"/>
<path d="M28.0001 24.5382C25.277 24.5382 23.0615 22.3228 23.0615 19.5995C23.0615 19.1328 23.4399 18.7545 23.9066 18.7545C24.3733 18.7545 24.7516 19.1328 24.7516 19.5995C24.7516 21.3908 26.2089 22.848 28 22.848C29.7911 22.848 31.2485 21.3908 31.2485 19.5995C31.2485 19.1328 31.6268 18.7545 32.0935 18.7545C32.5603 18.7545 32.9385 19.1328 32.9385 19.5995C32.9387 22.3227 30.7232 24.5382 28.0001 24.5382Z" fill="#DD636E"/>
<path d="M43.0428 22.1959H39.5889C39.1221 22.1959 38.7439 21.8176 38.7439 21.3509C38.7439 20.8842 39.1222 20.5059 39.5889 20.5059H43.0428C43.5096 20.5059 43.8878 20.8842 43.8878 21.3509C43.8879 21.8176 43.5096 22.1959 43.0428 22.1959Z" fill="#90D8F9"/>
<path d="M43.0428 25.0529H39.5889C39.1221 25.0529 38.7439 24.6745 38.7439 24.2078C38.7439 23.7411 39.1222 23.3628 39.5889 23.3628H43.0428C43.5096 23.3628 43.8878 23.7411 43.8878 24.2078C43.8878 24.6745 43.5096 25.0529 43.0428 25.0529Z" fill="#90D8F9"/>
<path d="M16.4114 22.1959H12.9576C12.4908 22.1959 12.1125 21.8176 12.1125 21.3509C12.1125 20.8842 12.4909 20.5059 12.9576 20.5059H16.4114C16.8782 20.5059 17.2565 20.8842 17.2565 21.3509C17.2566 21.8176 16.8782 22.1959 16.4114 22.1959Z" fill="#90D8F9"/>
<path d="M16.4114 25.0529H12.9576C12.4908 25.0529 12.1125 24.6745 12.1125 24.2078C12.1125 23.7411 12.4909 23.3628 12.9576 23.3628H16.4114C16.8782 23.3628 17.2565 23.7411 17.2565 24.2078C17.2565 24.6745 16.8782 25.0529 16.4114 25.0529Z" fill="#90D8F9"/>
<path d="M28.0001 35.5813C23.1484 35.5813 18.2966 35.4216 13.4788 35.1022C11.1478 34.9476 9.26814 33.154 9.00925 30.8372C8.27524 24.2651 8.27524 17.6003 9.00925 11.0282C9.26814 8.71143 11.1478 6.91779 13.4788 6.76324C23.1146 6.12449 32.8859 6.12449 42.5214 6.76324C44.8524 6.91768 46.732 8.71143 46.9909 11.0282C47.7249 17.6004 47.7249 24.2651 46.9909 30.8373C46.732 33.1541 44.8524 34.9478 42.5214 35.1023C37.7037 35.4216 32.8519 35.5813 28.0001 35.5813ZM28.0001 7.97435C23.1858 7.97435 18.3713 8.13284 13.5906 8.4497C12.0772 8.54999 10.8569 9.7133 10.689 11.2158C9.96902 17.6634 9.96902 24.202 10.6891 30.6497C10.8569 32.1521 12.0772 33.3154 13.5906 33.4157C23.1521 34.0496 32.8483 34.0496 42.4097 33.4157C43.9232 33.3154 45.1435 32.1521 45.3114 30.6497C46.0314 24.202 46.0314 17.6634 45.3113 11.2158C45.1435 9.7133 43.9232 8.54999 42.4097 8.4497C37.629 8.13284 32.8145 7.97435 28.0001 7.97435Z" fill="#75CEF9"/>
<path d="M17.2739 48.9891C17.2716 48.9831 17.2693 48.9772 17.2669 48.9713C17.1489 48.684 16.872 48.4985 16.5615 48.4985C16.5613 48.4985 16.561 48.4985 16.5606 48.4985C16.2498 48.4989 15.973 48.6851 15.8555 48.9729C15.8535 48.9777 15.8517 48.9825 15.8497 48.9874L14.0854 53.6198C13.9564 53.9585 14.1264 54.3376 14.4651 54.4667C14.542 54.496 14.621 54.5099 14.6986 54.5099C14.9631 54.5099 15.2123 54.3489 15.312 54.0871L15.5904 53.356H17.5191L17.7943 54.0852C17.9221 54.4243 18.3008 54.5953 18.6399 54.4675C18.979 54.3395 19.1501 53.9608 19.0221 53.6218L17.2739 48.9891ZM16.0902 52.0434L16.5591 50.8123L17.0237 52.0434H16.0902Z" fill="#F6F1F1"/>
<path d="M20.8123 48.4985C20.4499 48.4985 20.156 48.7923 20.156 49.1548V53.8533C20.156 54.2158 20.4499 54.5096 20.8123 54.5096C21.1746 54.5096 21.4685 54.2158 21.4685 53.8533V49.1548C21.4685 48.7924 21.1747 48.4985 20.8123 48.4985Z" fill="#F6F1F1"/>
</g>
<defs>
<clipPath id="clip0_1_13736">
<rect width="56" height="56" fill="white"/>
</clipPath>
</defs>
</svg>
