<svg width="56" height="56" viewBox="0 0 56 56" fill="none" xmlns="http://www.w3.org/2000/svg">
<g clip-path="url(#clip0_1_13708)">
<path d="M28 56C43.464 56 56 43.464 56 28C56 12.536 43.464 0 28 0C12.536 0 0 12.536 0 28C0 43.464 12.536 56 28 56Z" fill="#EAB14D"/>
<path d="M27.9999 0C27.5001 0 27.0034 0.0136719 26.51 0.0394844C41.2813 0.814078 53.0202 13.0359 53.0202 28C53.0202 42.9641 41.2813 55.1859 26.51 55.9605C27.0034 55.9863 27.5001 56 27.9999 56C43.4639 56 55.9999 43.464 55.9999 28C55.9999 12.536 43.4639 0 27.9999 0Z" fill="#E49542"/>
<path d="M28 49.8189C40.0503 49.8189 49.8189 40.0503 49.8189 28C49.8189 15.9498 40.0503 6.18115 28 6.18115C15.9498 6.18115 6.18115 15.9498 6.18115 28C6.18115 40.0503 15.9498 49.8189 28 49.8189Z" fill="#F4FBFF"/>
<path d="M28.0001 6.18115C27.3958 6.18115 26.7976 6.20686 26.2058 6.25498C37.4166 7.16761 46.2305 16.5541 46.2305 28C46.2305 39.446 37.4166 48.8324 26.2058 49.7451C26.7976 49.7933 27.3958 49.819 28.0001 49.819C40.0504 49.819 49.819 40.0503 49.819 28.0002C49.819 15.95 40.0504 6.18115 28.0001 6.18115Z" fill="#DAF1F4"/>
<path d="M27.9998 12.8966C27.5331 12.8966 27.1548 12.5182 27.1548 12.0515V10.8112C27.1548 10.3445 27.5331 9.96619 27.9998 9.96619C28.4665 9.96619 28.845 10.3445 28.845 10.8112V12.0515C28.845 12.5182 28.4665 12.8966 27.9998 12.8966Z" fill="#2B4D66"/>
<path d="M39.2313 17.5869C39.015 17.5869 38.7988 17.5044 38.6337 17.3394C38.3037 17.0093 38.3037 16.4744 38.6338 16.1443L39.5109 15.2673C39.8409 14.9372 40.3759 14.9373 40.706 15.2673C41.036 15.5974 41.036 16.1324 40.7059 16.4624L39.8288 17.3395C39.6638 17.5044 39.4476 17.5869 39.2313 17.5869Z" fill="#2B4D66"/>
<path d="M45.0968 28.8452H43.8565C43.3897 28.8452 43.0115 28.4669 43.0115 28.0002C43.0115 27.5335 43.3898 27.1552 43.8565 27.1552H45.0968C45.5636 27.1552 45.9418 27.5335 45.9418 28.0002C45.9418 28.4669 45.5635 28.8452 45.0968 28.8452Z" fill="#2B4D66"/>
<path d="M40.0431 40.9536C39.8269 40.9536 39.6105 40.871 39.4455 40.7061L38.5685 39.8291C38.2385 39.499 38.2385 38.9641 38.5685 38.6339C38.8986 38.304 39.4336 38.304 39.7638 38.6339L40.6408 39.5109C40.9707 39.8409 40.9707 40.3759 40.6408 40.7061C40.4757 40.871 40.2594 40.9536 40.0431 40.9536Z" fill="#2B4D66"/>
<path d="M27.9078 45.9422C27.4411 45.9422 27.0627 45.5639 27.0627 45.0972V43.8569C27.0627 43.3901 27.4411 43.0118 27.9078 43.0118C28.3745 43.0118 28.7528 43.3902 28.7528 43.8569V45.0972C28.7528 45.5639 28.3745 45.9422 27.9078 45.9422Z" fill="#2B4D66"/>
<path d="M15.7994 40.8885C15.5832 40.8885 15.3668 40.8059 15.2019 40.6408C14.8718 40.3108 14.8719 39.7758 15.2019 39.4457L16.079 38.5687C16.409 38.2388 16.944 38.2387 17.2741 38.5688C17.6041 38.8988 17.6041 39.4339 17.274 39.764L16.3969 40.6409C16.232 40.806 16.0156 40.8885 15.7994 40.8885Z" fill="#2B4D66"/>
<path d="M12.0512 28.7532H10.8109C10.3441 28.7532 9.96582 28.3748 9.96582 27.9081C9.96582 27.4414 10.3441 27.0631 10.8109 27.0631H12.0512C12.5179 27.0631 12.8962 27.4414 12.8962 27.9081C12.8963 28.3748 12.5179 28.7532 12.0512 28.7532Z" fill="#2B4D66"/>
<path d="M16.7417 17.5218C16.5254 17.5218 16.3092 17.4393 16.1442 17.2742L15.2671 16.3973C14.9371 16.0672 14.937 15.5322 15.267 15.2021C15.5971 14.8721 16.132 14.872 16.4621 15.202L17.3392 16.0791C17.6692 16.4091 17.6693 16.9441 17.3393 17.2742C17.1741 17.4392 16.9579 17.5218 16.7417 17.5218Z" fill="#2B4D66"/>
<path d="M28 28.8452H20.8228C20.3561 28.8452 19.9778 28.4667 19.9778 28C19.9778 27.5333 20.3561 27.155 20.8228 27.155H27.1549V16.4037C27.1549 15.937 27.5332 15.5587 27.9999 15.5587C28.4666 15.5587 28.8449 15.937 28.8449 16.4037V28C28.845 28.4667 28.4667 28.8452 28 28.8452Z" fill="#2B4D66"/>
<path d="M36.6697 33.3037C36.5396 33.3037 36.4077 33.2736 36.284 33.21L27.6136 28.7514C27.1985 28.5381 27.0351 28.0286 27.2485 27.6135C27.4619 27.1984 27.9713 27.0349 28.3865 27.2484L37.0569 31.7069C37.472 31.9204 37.6355 32.4298 37.422 32.8448C37.272 33.1363 36.9763 33.3037 36.6697 33.3037Z" fill="#DA4A54"/>
<path d="M27.9999 30.2556C29.2456 30.2556 30.2554 29.2457 30.2554 28C30.2554 26.7543 29.2456 25.7445 27.9999 25.7445C26.7542 25.7445 25.7444 26.7543 25.7444 28C25.7444 29.2457 26.7542 30.2556 27.9999 30.2556Z" fill="#365E7D"/>
</g>
<defs>
<clipPath id="clip0_1_13708">
<rect width="56" height="56" fill="white"/>
</clipPath>
</defs>
</svg>
