<svg width="56" height="56" viewBox="0 0 56 56" fill="none" xmlns="http://www.w3.org/2000/svg">
<g clip-path="url(#clip0_1_13776)">
<path d="M19.3377 3.31761L16.1125 11.1832L6.16919 1.23992C10.4264 -0.938823 15.7738 -0.246261 19.3377 3.31761Z" fill="#4BB3A4"/>
<path d="M11.3274 11.3273L23.2152 27.8556L30.4643 20.6066L22.5702 12.7126C22.9809 9.37073 21.9028 5.88266 19.3375 3.31738L11.3274 11.3273Z" fill="#60D9CE"/>
<path d="M11.3274 11.3273L25.5355 25.5355L20.6059 30.4651L12.7119 22.5711C9.37079 22.981 5.88272 21.9029 3.31744 19.3375C-0.246538 15.7735 -0.938661 10.4271 1.23998 6.16956L8.86252 13.7921L11.3274 11.3273Z" fill="#4BB3A4"/>
<path d="M36.6624 52.6822L39.8876 44.8167L49.8309 54.7599C45.5736 56.9387 40.2262 56.2461 36.6624 52.6822Z" fill="#60D9CE"/>
<path d="M44.6726 44.6726L32.7847 28.1443L25.5356 35.3933L33.4297 43.2873C33.019 46.6292 34.0971 50.1172 36.6625 52.6825L44.6726 44.6726Z" fill="#4BB3A4"/>
<path d="M44.6727 44.6727L30.4646 30.4645L35.3942 25.5349L43.2882 33.4289C46.6293 33.019 50.1174 34.0971 52.6827 36.6625C56.2464 40.2262 56.9387 45.5728 54.76 49.8303L47.1375 42.2078L44.6727 44.6727Z" fill="#60D9CE"/>
<path d="M53.2418 2.75806L54.4741 3.99038C56.5074 6.02366 56.5074 9.35095 54.4741 11.3842L51.4821 14.3763L43.4592 9.44709L53.2418 2.75806Z" fill="#FF6126"/>
<path d="M52.0094 1.52589L53.2418 2.75822L45.006 10.994L41.6235 4.51795L44.6156 1.52589C46.6489 -0.507492 49.9762 -0.507492 52.0094 1.52589Z" fill="#FF8151"/>
<path d="M46.5528 9.44702L51.4821 14.3763L46.5528 19.3055L38.53 14.3763L46.5528 9.44702Z" fill="#A3FDF6"/>
<path d="M41.6235 4.51782L46.5528 9.44713L40.0768 15.9231L36.6943 9.44713L41.6235 4.51782Z" fill="#DBFFFA"/>
<path d="M4.52379 49.9298L5.60649 54.1062L0.656738 55.3436L4.52379 49.9298Z" fill="#000E0F"/>
<path d="M1.8942 50.3939L3.7504 52.25L0.656738 55.3437L1.8942 50.3939Z" fill="#116371"/>
<path d="M9.64601 44.8076L13.8015 52.0568L5.60658 54.1062L3.75049 52.25L9.64601 44.8076Z" fill="#FFA07D"/>
<path d="M3.94299 42.1982L8.87262 47.1279L3.75049 52.25L1.89429 50.3939L3.94299 42.1982Z" fill="#FFC0A8"/>
<path d="M41.6236 14.3763L46.5529 19.3056L13.8014 52.0572L8.87207 47.1279L22.9276 28.432L41.6236 14.3763Z" fill="#FFD15E"/>
<path d="M41.6235 14.3758L36.6943 9.44666L3.94316 42.1978L8.87228 47.127L41.6235 14.3758Z" fill="#FFEA7C"/>
</g>
<defs>
<clipPath id="clip0_1_13776">
<rect width="56" height="56" fill="white"/>
</clipPath>
</defs>
</svg>
