<svg width="1600" height="718" viewBox="0 0 1600 718" fill="none"
    xmlns="http://www.w3.org/2000/svg">
    <rect x="-1" width="1600" height="718" fill="#8D44AD" fill-opacity="0.1"/>
    <g opacity="0.08" clip-path="url(#clip0_1_14031)">
        <path d="M1476.35 111.845L1521.96 66.267C1524.06 67.4582 1526.75 67.1746 1528.54 65.3878C1530.7 63.2323 1530.7 59.7438 1528.54 57.6166C1526.38 55.4611 1522.89 55.4611 1520.77 57.6166C1518.98 59.4034 1518.69 62.0978 1519.89 64.1966L1475.16 108.895H1270.78C1270.13 106.569 1268.03 104.868 1265.51 104.868C1262.47 104.868 1260 107.335 1260 110.37C1260 113.405 1262.47 115.872 1265.51 115.872C1268.03 115.872 1270.16 114.142 1270.78 111.845H1476.35Z" fill="url(#paint0_linear_1_14031)"/>
        <path d="M1446.84 132.407C1443.8 132.407 1441.34 134.874 1441.34 137.909C1441.34 140.944 1443.8 143.411 1446.84 143.411C1449.37 143.411 1451.49 141.681 1452.12 139.384H1531.44L1595.71 75.1443H1832.19C1832.84 77.4699 1834.94 79.1717 1837.46 79.1717C1840.5 79.1717 1842.97 76.7042 1842.97 73.6695C1842.97 70.6347 1840.5 68.1672 1837.46 68.1672C1834.94 68.1672 1832.81 69.869 1832.19 72.1946H1594.49L1530.22 136.434H1452.09C1451.44 134.109 1449.34 132.407 1446.81 132.407H1446.84Z" fill="url(#paint1_linear_1_14031)"/>
        <path d="M1525.39 621.282L1464.89 560.814H1289.14C1288.49 558.488 1286.39 556.787 1283.87 556.787C1280.83 556.787 1278.36 559.254 1278.36 562.289C1278.36 565.323 1280.83 567.791 1283.87 567.791C1286.39 567.791 1288.52 566.061 1289.14 563.764H1463.64L1523.29 623.38C1522.1 625.479 1522.38 628.173 1524.17 629.96C1526.33 632.116 1529.82 632.116 1531.95 629.96C1534.1 627.805 1534.1 624.316 1531.95 622.189C1530.16 620.402 1527.46 620.119 1525.36 621.31L1525.39 621.282Z" fill="url(#paint2_linear_1_14031)"/>
        <path d="M1832.87 609.058C1835.9 609.058 1838.37 606.59 1838.37 603.555C1838.37 600.521 1835.9 598.053 1832.87 598.053C1830.34 598.053 1828.21 599.755 1827.59 602.08H1545.2L1511.94 568.84C1513.13 566.742 1512.85 564.047 1511.06 562.26C1508.9 560.105 1505.41 560.105 1503.28 562.26C1501.13 564.416 1501.13 567.904 1503.28 570.032C1505.07 571.818 1507.77 572.102 1509.87 570.911L1543.98 605.002H1827.59C1828.24 607.327 1830.34 609.029 1832.87 609.029V609.058Z" fill="url(#paint3_linear_1_14031)"/>
        <path d="M1288.46 535.657C1290.99 535.657 1293.12 533.927 1293.74 531.629H1485.52L1577.32 439.879H1783.89L1846.69 377.114C1848.79 378.305 1851.48 378.021 1853.27 376.234C1855.43 374.079 1855.43 370.59 1853.27 368.463C1851.11 366.308 1847.62 366.308 1845.5 368.463C1843.71 370.25 1843.42 372.944 1844.62 375.043L1782.67 436.957H1576.13L1484.33 528.708H1293.74C1293.09 526.383 1290.99 524.681 1288.46 524.681C1285.43 524.681 1282.96 527.148 1282.96 530.183C1282.96 533.218 1285.43 535.685 1288.46 535.685V535.657Z" fill="url(#paint4_linear_1_14031)"/>
        <path d="M2074.19 547.682L2120.11 593.572H2471.26L2516.64 638.894L2586.1 569.464H2832.91C2833.56 571.79 2835.66 573.492 2838.19 573.492C2841.22 573.492 2843.69 571.024 2843.69 567.99C2843.69 564.955 2841.22 562.487 2838.19 562.487C2835.66 562.487 2833.53 564.189 2832.91 566.515H2584.88L2516.64 634.725L2472.48 590.594H2121.33L2075.41 544.704H1861.95L1781.62 464.412H1585.33L1535.15 514.556C1533.05 513.364 1530.36 513.648 1528.57 515.435C1526.41 517.59 1526.41 521.079 1528.57 523.206C1530.73 525.362 1534.22 525.362 1536.35 523.206C1538.13 521.419 1538.42 518.725 1537.22 516.626L1586.55 467.333H1780.42L1860.76 547.626H2074.22L2074.19 547.682Z" fill="url(#paint5_linear_1_14031)"/>
        <path d="M1800.18 562.828C1802.33 564.983 1805.82 564.983 1807.95 562.828C1810.11 560.672 1810.11 557.184 1807.95 555.056C1806.16 553.27 1803.47 552.986 1801.37 554.177L1777.02 529.843H1591.06L1567.28 553.61C1565.18 552.419 1562.48 552.702 1560.69 554.489C1558.54 556.645 1558.54 560.133 1560.69 562.26C1562.85 564.416 1566.34 564.416 1568.47 562.26C1570.26 560.474 1570.54 557.779 1569.35 555.68L1592.28 532.764H1775.83L1799.32 556.248C1798.13 558.346 1798.42 561.041 1800.2 562.828H1800.18Z" fill="url(#paint6_linear_1_14031)"/>
        <path d="M1974.98 223.023L1890.05 138.136H1611.12L1581.27 167.945H1289.74C1289.09 165.619 1286.99 163.917 1284.46 163.917C1281.43 163.917 1278.96 166.385 1278.96 169.419C1278.96 172.454 1281.43 174.922 1284.46 174.922C1286.99 174.922 1289.12 173.191 1289.74 170.894H1582.52L1612.37 141.086H1888.89L1973.82 225.973H2346.85L2413.08 159.776C2415.18 160.967 2417.88 160.684 2419.67 158.897C2421.82 156.742 2421.82 153.253 2419.67 151.126C2417.51 148.97 2414.02 148.97 2411.89 151.126C2410.1 152.913 2409.82 155.607 2411.01 157.706L2345.63 223.052H1974.98V223.023Z" fill="url(#paint7_linear_1_14031)"/>
        <path d="M1548.66 231.107C1546.5 228.951 1543.01 228.951 1540.89 231.107C1538.76 233.262 1538.73 236.751 1540.89 238.878C1542.67 240.665 1545.37 240.948 1547.47 239.757L1566.09 258.362H1859.06L1905.97 211.48H1925.12C1925.78 213.806 1927.88 215.507 1930.4 215.507C1933.44 215.507 1935.91 213.04 1935.91 210.005C1935.91 206.971 1933.44 204.503 1930.4 204.503C1927.88 204.503 1925.75 206.205 1925.12 208.53H1904.75L1857.84 255.413H1567.31L1549.54 237.658C1550.73 235.559 1550.45 232.865 1548.66 231.078V231.107Z" fill="url(#paint8_linear_1_14031)"/>
        <path d="M1580.22 216.727L1559.56 196.08H1359.72C1359.07 193.754 1356.97 192.052 1354.44 192.052C1351.41 192.052 1348.94 194.52 1348.94 197.554C1348.94 200.589 1351.41 203.057 1354.44 203.057C1356.97 203.057 1359.1 201.327 1359.72 199.029H1558.34L1579 219.677H1828.1L1853.61 194.179C1855.71 195.371 1858.41 195.087 1860.19 193.3C1862.35 191.145 1862.35 187.656 1860.19 185.529C1858.04 183.373 1854.55 183.373 1852.42 185.529C1850.63 187.316 1850.35 190.01 1851.54 192.109L1826.91 216.727H1580.22Z" fill="url(#paint9_linear_1_14031)"/>
        <path d="M1485.83 240.551C1483.68 238.396 1480.18 238.396 1478.06 240.551C1475.9 242.707 1475.9 246.195 1478.06 248.322C1479.84 250.109 1482.54 250.393 1484.64 249.201L1559.22 323.737H1893.51L1954.72 262.56C1956.82 263.751 1959.52 263.468 1961.31 261.681C1963.46 259.525 1963.46 256.037 1961.31 253.91C1959.15 251.754 1955.66 251.754 1953.53 253.91C1951.74 255.696 1951.46 258.391 1952.65 260.49L1892.29 320.815H1560.41L1486.71 247.159C1487.9 245.061 1487.62 242.366 1485.83 240.579V240.551Z" fill="url(#paint10_linear_1_14031)"/>
        <path d="M2589.71 145.17C2587.18 145.17 2585.05 146.9 2584.43 149.197H2466.8L2374.29 241.657H1937.89L1883.66 295.857H1571.59L1502.75 227.051H1306.37C1305.72 224.725 1303.62 223.023 1301.09 223.023C1298.05 223.023 1295.59 225.491 1295.59 228.526C1295.59 231.56 1298.05 234.028 1301.09 234.028C1303.62 234.028 1305.75 232.298 1306.37 230H1501.53L1570.37 298.806H1884.88L1939.11 244.607H2375.48L2467.99 152.147H2584.4C2585.05 154.473 2587.15 156.174 2589.68 156.174C2592.72 156.174 2595.19 153.707 2595.19 150.672C2595.19 147.637 2592.72 145.17 2589.68 145.17H2589.71Z" fill="url(#paint11_linear_1_14031)"/>
        <path d="M1573.18 345.745C1572.53 343.42 1570.43 341.718 1567.9 341.718C1564.86 341.718 1562.4 344.186 1562.4 347.22C1562.4 350.255 1564.86 352.722 1567.9 352.722C1570.43 352.722 1572.56 350.992 1573.18 348.695H1805L1757.47 396.201C1755.37 395.01 1752.67 395.294 1750.88 397.081C1748.73 399.236 1748.73 402.725 1750.88 404.852C1753.04 407.007 1756.53 407.007 1758.66 404.852C1760.45 403.065 1760.73 400.37 1759.54 398.272L1812.07 345.774H1573.18V345.745Z" fill="url(#paint12_linear_1_14031)"/>
        <path d="M1725.46 384.828C1726.11 387.154 1728.21 388.856 1730.73 388.856C1733.77 388.856 1736.24 386.388 1736.24 383.353C1736.24 380.319 1733.77 377.851 1730.73 377.851C1728.21 377.851 1726.08 379.553 1725.46 381.879H1571.59L1459.7 270.047H1323.57C1322.91 267.722 1320.81 266.02 1318.29 266.02C1315.25 266.02 1312.78 268.488 1312.78 271.522C1312.78 274.557 1315.25 277.024 1318.29 277.024C1320.81 277.024 1322.94 275.294 1323.57 272.997H1458.48L1570.37 384.828H1725.43H1725.46Z" fill="url(#paint13_linear_1_14031)"/>
        <path d="M1294.31 492.008C1293.66 489.682 1291.56 487.98 1289.03 487.98C1285.99 487.98 1283.53 490.448 1283.53 493.483C1283.53 496.517 1285.99 498.985 1289.03 498.985C1291.56 498.985 1293.68 497.255 1294.31 494.958H1492.42L1556.66 430.746C1558.76 431.937 1561.46 431.654 1563.25 429.867C1565.4 427.711 1565.4 424.223 1563.25 422.096C1561.09 419.94 1557.6 419.94 1555.47 422.096C1553.68 423.883 1553.4 426.577 1554.59 428.676L1491.22 492.008H1294.31Z" fill="url(#paint14_linear_1_14031)"/>
        <path d="M1484.87 354.963C1487.02 357.119 1490.51 357.119 1492.64 354.963C1494.8 352.808 1494.8 349.319 1492.64 347.192C1490.86 345.405 1488.16 345.121 1486.06 346.313L1439.89 300.168H1320.98C1320.33 297.842 1318.23 296.14 1315.71 296.14C1312.67 296.14 1310.2 298.608 1310.2 301.643C1310.2 304.677 1312.67 307.145 1315.71 307.145C1318.23 307.145 1320.36 305.415 1320.98 303.117H1438.7L1483.99 348.383C1482.8 350.482 1483.08 353.176 1484.87 354.963Z" fill="url(#paint15_linear_1_14031)"/>
        <path d="M1285.57 457.662C1288.09 457.662 1290.22 455.932 1290.85 453.634H1461.4L1506.15 408.907H1613.53C1614.19 411.233 1616.29 412.935 1618.81 412.935C1621.85 412.935 1624.32 410.467 1624.32 407.433C1624.32 404.398 1621.85 401.93 1618.81 401.93C1616.29 401.93 1614.16 403.632 1613.53 405.958H1504.96L1460.21 450.685H1290.88C1290.22 448.359 1288.12 446.657 1285.6 446.657C1282.56 446.657 1280.09 449.125 1280.09 452.159C1280.09 455.194 1282.56 457.662 1285.6 457.662H1285.57Z" fill="url(#paint16_linear_1_14031)"/>
        <path d="M1287.3 381.283C1284.26 381.283 1281.79 383.75 1281.79 386.785C1281.79 389.82 1284.26 392.287 1287.3 392.287C1289.83 392.287 1291.95 390.557 1292.58 388.26H1414.94L1444.74 358.48C1446.84 359.671 1449.54 359.387 1451.32 357.601C1453.48 355.445 1453.48 351.957 1451.32 349.83C1449.17 347.674 1445.68 347.674 1443.55 349.83C1441.76 351.616 1441.48 354.311 1442.67 356.409L1413.72 385.339H1292.58C1291.93 383.013 1289.83 381.311 1287.3 381.311V381.283Z" fill="url(#paint17_linear_1_14031)"/>
        <path d="M1307.96 426.719C1310.48 426.719 1312.61 424.989 1313.24 422.691H1430.44L1475.19 377.965H1529.19C1529.85 380.29 1531.95 381.992 1534.47 381.992C1537.51 381.992 1539.98 379.524 1539.98 376.49C1539.98 373.455 1537.51 370.988 1534.47 370.988C1531.95 370.988 1529.82 372.689 1529.19 375.015H1473.97L1429.22 419.742H1313.24C1312.58 417.416 1310.48 415.714 1307.96 415.714C1304.92 415.714 1302.45 418.182 1302.45 421.217C1302.45 424.251 1304.92 426.719 1307.96 426.719Z" fill="url(#paint18_linear_1_14031)"/>
    </g>
    <defs>
        <linearGradient id="paint0_linear_1_14031" x1="1395.08" y1="56" x2="1395.08" y2="115.872" gradientUnits="userSpaceOnUse">
            <stop stop-color="#0D0C0C"/>
            <stop offset="1" stop-color="#0D0C0C" stop-opacity="0"/>
        </linearGradient>
        <linearGradient id="paint1_linear_1_14031" x1="1642.15" y1="68.1672" x2="1642.15" y2="143.411" gradientUnits="userSpaceOnUse">
            <stop stop-color="#0D0C0C"/>
            <stop offset="1" stop-color="#0D0C0C" stop-opacity="0"/>
        </linearGradient>
        <linearGradient id="paint2_linear_1_14031" x1="1405.96" y1="556.787" x2="1405.96" y2="631.577" gradientUnits="userSpaceOnUse">
            <stop stop-color="#0D0C0C"/>
            <stop offset="1" stop-color="#0D0C0C" stop-opacity="0"/>
        </linearGradient>
        <linearGradient id="paint3_linear_1_14031" x1="1670.02" y1="560.644" x2="1670.02" y2="609.058" gradientUnits="userSpaceOnUse">
            <stop stop-color="#0D0C0C"/>
            <stop offset="1" stop-color="#0D0C0C" stop-opacity="0"/>
        </linearGradient>
        <linearGradient id="paint4_linear_1_14031" x1="1568.92" y1="366.847" x2="1568.92" y2="535.685" gradientUnits="userSpaceOnUse">
            <stop stop-color="#0D0C0C"/>
            <stop offset="1" stop-color="#0D0C0C" stop-opacity="0"/>
        </linearGradient>
        <linearGradient id="paint5_linear_1_14031" x1="2185.32" y1="464.412" x2="2185.32" y2="638.894" gradientUnits="userSpaceOnUse">
            <stop stop-color="#0D0C0C"/>
            <stop offset="1" stop-color="#0D0C0C" stop-opacity="0"/>
        </linearGradient>
        <linearGradient id="paint6_linear_1_14031" x1="1684.32" y1="529.843" x2="1684.32" y2="564.444" gradientUnits="userSpaceOnUse">
            <stop stop-color="#0D0C0C"/>
            <stop offset="1" stop-color="#0D0C0C" stop-opacity="0"/>
        </linearGradient>
        <linearGradient id="paint7_linear_1_14031" x1="1850.12" y1="138.136" x2="1850.12" y2="225.973" gradientUnits="userSpaceOnUse">
            <stop stop-color="#0D0C0C"/>
            <stop offset="1" stop-color="#0D0C0C" stop-opacity="0"/>
        </linearGradient>
        <linearGradient id="paint8_linear_1_14031" x1="1737.59" y1="204.503" x2="1737.59" y2="258.362" gradientUnits="userSpaceOnUse">
            <stop stop-color="#0D0C0C"/>
            <stop offset="1" stop-color="#0D0C0C" stop-opacity="0"/>
        </linearGradient>
        <linearGradient id="paint9_linear_1_14031" x1="1605.37" y1="183.912" x2="1605.37" y2="219.677" gradientUnits="userSpaceOnUse">
            <stop stop-color="#0D0C0C"/>
            <stop offset="1" stop-color="#0D0C0C" stop-opacity="0"/>
        </linearGradient>
        <linearGradient id="paint10_linear_1_14031" x1="1719.68" y1="238.934" x2="1719.68" y2="323.737" gradientUnits="userSpaceOnUse">
            <stop stop-color="#0D0C0C"/>
            <stop offset="1" stop-color="#0D0C0C" stop-opacity="0"/>
        </linearGradient>
        <linearGradient id="paint11_linear_1_14031" x1="1945.39" y1="145.17" x2="1945.39" y2="298.806" gradientUnits="userSpaceOnUse">
            <stop stop-color="#0D0C0C"/>
            <stop offset="1" stop-color="#0D0C0C" stop-opacity="0"/>
        </linearGradient>
        <linearGradient id="paint12_linear_1_14031" x1="1687.23" y1="341.718" x2="1687.23" y2="406.468" gradientUnits="userSpaceOnUse">
            <stop stop-color="#0D0C0C"/>
            <stop offset="1" stop-color="#0D0C0C" stop-opacity="0"/>
        </linearGradient>
        <linearGradient id="paint13_linear_1_14031" x1="1524.51" y1="266.02" x2="1524.51" y2="388.856" gradientUnits="userSpaceOnUse">
            <stop stop-color="#0D0C0C"/>
            <stop offset="1" stop-color="#0D0C0C" stop-opacity="0"/>
        </linearGradient>
        <linearGradient id="paint14_linear_1_14031" x1="1424.2" y1="420.479" x2="1424.2" y2="498.985" gradientUnits="userSpaceOnUse">
            <stop stop-color="#0D0C0C"/>
            <stop offset="1" stop-color="#0D0C0C" stop-opacity="0"/>
        </linearGradient>
        <linearGradient id="paint15_linear_1_14031" x1="1402.23" y1="296.14" x2="1402.23" y2="356.58" gradientUnits="userSpaceOnUse">
            <stop stop-color="#0D0C0C"/>
            <stop offset="1" stop-color="#0D0C0C" stop-opacity="0"/>
        </linearGradient>
        <linearGradient id="paint16_linear_1_14031" x1="1452.2" y1="401.93" x2="1452.2" y2="457.662" gradientUnits="userSpaceOnUse">
            <stop stop-color="#0D0C0C"/>
            <stop offset="1" stop-color="#0D0C0C" stop-opacity="0"/>
        </linearGradient>
        <linearGradient id="paint17_linear_1_14031" x1="1367.37" y1="348.213" x2="1367.37" y2="392.287" gradientUnits="userSpaceOnUse">
            <stop stop-color="#0D0C0C"/>
            <stop offset="1" stop-color="#0D0C0C" stop-opacity="0"/>
        </linearGradient>
        <linearGradient id="paint18_linear_1_14031" x1="1421.22" y1="370.988" x2="1421.22" y2="426.719" gradientUnits="userSpaceOnUse">
            <stop stop-color="#0D0C0C"/>
            <stop offset="1" stop-color="#0D0C0C" stop-opacity="0"/>
        </linearGradient>
        <clipPath id="clip0_1_14031">
            <rect width="1769" height="615" fill="white" transform="translate(1260 56)"/>
        </clipPath>
    </defs>
</svg>
