<svg width="1600" height="836" viewBox="0 0 1600 836" fill="none"
    xmlns="http://www.w3.org/2000/svg">
    <g clip-path="url(#clip0_1_14032)">
        <rect width="1600" height="836" fill="white"/>
        <circle cx="535.765" cy="175.765" r="16.7646" fill="#6177F8"/>
        <rect x="690.713" y="506.689" width="20.8679" height="20.8679" transform="rotate(-28.5582 690.713 506.689)" stroke="#EF5DA8" stroke-width="4"/>
        <g opacity="0.1">
            <g opacity="0.7">
                <path d="M1549.57 158.808L1612.39 170.107L1619.82 212.847L1657.45 222.801L1676.06 171.92L1612.39 170.107" stroke="url(#paint0_linear_1_14032)" stroke-width="0.75" stroke-miterlimit="10"/>
                <path d="M1676.06 171.92L1717.11 216.448L1769.66 267.008L1831.74 262.346L1830.45 300.103L1769.66 267.008L1698.19 261.544L1717.11 216.448L1657.45 222.801L1612.39 170.107L1564.91 181.492" stroke="url(#paint1_linear_1_14032)" stroke-width="0.75" stroke-miterlimit="10"/>
                <path d="M1547.24 157.71C1547.78 156.391 1549.29 155.749 1550.63 156.304C1551.94 156.847 1552.59 158.364 1552.03 159.696C1551.49 161.016 1549.97 161.657 1548.64 161.102C1547.32 160.56 1546.68 159.043 1547.24 157.71Z" fill="#41469E"/>
                <path d="M1559.45 180.641C1560.04 178.383 1562.35 177.027 1564.6 177.619C1566.86 178.211 1568.21 180.517 1567.62 182.775C1567.03 185.032 1564.73 186.389 1562.47 185.797C1560.21 185.205 1558.86 182.898 1559.45 180.641Z" fill="#41469E"/>
            </g>
            <path d="M1288.96 721.062L1320.79 600.404L1448.12 573.366L1516.61 538.619L1574.48 611.986L1564.84 461.392L1661.3 458.493L1582.2 342.657L1614.03 246.126L1700.85 262.21" stroke="url(#paint2_linear_1_14032)" stroke-width="1.2" stroke-miterlimit="10"/>
            <path d="M1676.97 339.438L1581.67 342.658" stroke="url(#paint3_linear_1_14032)" stroke-width="1.2" stroke-miterlimit="10"/>
            <path d="M1273.85 494.535L1294.43 722.358" stroke="url(#paint4_linear_1_14032)" stroke-width="1.2" stroke-miterlimit="10"/>
            <path d="M1320.79 600.404L1399.24 646.413L1448.12 573.366L1370.3 533.155L1320.79 600.404ZM1320.79 600.404L1273.85 494.535L1236.55 559.539" stroke="url(#paint5_linear_1_14032)" stroke-width="1.2" stroke-miterlimit="10"/>
            <path d="M1340.08 687.598L1392.17 683.096L1399.24 646.413L1498.92 703.041L1448.12 573.366L1410.82 464.932L1370.3 533.155L1296.35 385.138L1427.54 382.56L1342.66 251.269L1330.43 178.556L1392.17 145.733L1360.67 84.5902" stroke="url(#paint6_linear_1_14032)" stroke-width="1.2" stroke-miterlimit="10"/>
            <path d="M1614.03 246.126L1549.73 347.16L1427.54 382.56L1471.27 281.527L1549.73 347.16" stroke="url(#paint7_linear_1_14032)" stroke-width="1.2" stroke-miterlimit="10"/>
            <path d="M1392.17 145.733L1342.66 251.269L1471.27 281.526L1531.08 221.987L1549.73 347.16L1582.2 342.657L1564.84 461.392L1544.09 411.202" stroke="url(#paint8_linear_1_14032)" stroke-width="1.2" stroke-miterlimit="10"/>
            <path d="M1354.07 337.834L1296.35 385.138L1286.06 337.353L1354.07 337.834ZM1354.07 337.834L1290.57 262.852L1286.06 337.353L1265.81 312.252" stroke="url(#paint9_linear_1_14032)" stroke-width="1.2" stroke-miterlimit="10"/>
            <path d="M1290.57 262.852L1271.92 226.822L1293.14 140.578L1255.2 171.476L1271.92 226.822" stroke="url(#paint10_linear_1_14032)" stroke-width="1.2" stroke-miterlimit="10"/>
            <path d="M1370.3 533.155L1273.85 494.535L1318.38 486.493L1370.3 533.155Z" stroke="url(#paint11_linear_1_14032)" stroke-width="1.2" stroke-miterlimit="10"/>
            <path d="M1476.09 142.835L1497.96 117.413" stroke="url(#paint12_linear_1_14032)" stroke-width="1.2" stroke-miterlimit="10"/>
            <path d="M1634.61 585.282L1740.39 545.379L1624.64 667.974L1634.61 585.282ZM1634.61 585.282L1574.48 611.986L1624.64 667.974L1717.24 625.493L1740.39 545.379L1869.64 614.885L1717.24 625.493" stroke="url(#paint13_linear_1_14032)" stroke-width="1.2" stroke-miterlimit="10"/>
            <path d="M1516.61 538.619L1461.62 526.716L1410.82 464.932L1564.84 461.392L1516.61 538.619ZM1516.61 538.619L1410.82 464.932L1401.82 419.404L1564.84 461.392" stroke="url(#paint14_linear_1_14032)" stroke-width="1.2" stroke-miterlimit="10"/>
            <path d="M1461.62 526.716L1448.12 573.366" stroke="url(#paint15_linear_1_14032)" stroke-width="1.2" stroke-miterlimit="10"/>
            <path d="M1506.96 627.75L1550.37 661.214L1574.47 611.986L1506.96 627.75ZM1506.96 627.75L1448.11 573.366L1574.47 611.986L1661.3 458.493L1676.73 339.759L1614.03 246.126L1531.08 221.987L1532.04 148.632L1476.09 142.835L1531.08 221.987" stroke="url(#paint16_linear_1_14032)" stroke-width="1.2" stroke-miterlimit="10"/>
            <path d="M1592.16 672.155L1550.37 661.214L1500.86 648.029" stroke="url(#paint17_linear_1_14032)" stroke-width="1.2" stroke-miterlimit="10"/>
            <path d="M1318.38 486.493L1296.35 385.138" stroke="url(#paint18_linear_1_14032)" stroke-width="1.2" stroke-miterlimit="10"/>
            <path d="M1528.42 221.604C1528.42 223.035 1529.57 224.195 1531 224.195C1532.43 224.195 1533.59 223.035 1533.59 221.604C1533.59 220.174 1532.43 219.014 1531 219.014C1529.57 219.014 1528.42 220.174 1528.42 221.604Z" fill="#4A74D1"/>
            <path d="M1423.98 381.598C1423.98 383.029 1425.14 384.189 1426.57 384.189C1428 384.189 1429.16 383.029 1429.16 381.598C1429.16 380.167 1428 379.008 1426.57 379.008C1425.14 379.008 1423.98 380.167 1423.98 381.598Z" fill="#4A74D1"/>
            <path d="M1349.71 337.514C1349.71 338.945 1350.87 340.104 1352.3 340.104C1353.73 340.104 1354.89 338.945 1354.89 337.514C1354.89 336.083 1353.73 334.924 1352.3 334.924C1350.87 334.924 1349.71 336.083 1349.71 337.514Z" fill="#4A74D1"/>
            <path d="M1262.49 311.525C1262.49 312.955 1263.65 314.115 1265.08 314.115C1266.51 314.115 1267.67 312.955 1267.67 311.525C1267.67 310.094 1266.51 308.934 1265.08 308.934C1263.65 308.934 1262.49 310.094 1262.49 311.525Z" fill="#4A74D1"/>
            <path d="M1327.84 178.556C1327.84 179.987 1329 181.147 1330.43 181.147C1331.86 181.147 1333.02 179.987 1333.02 178.556C1333.02 177.125 1331.86 175.966 1330.43 175.966C1329 175.966 1327.84 177.125 1327.84 178.556Z" fill="#4A74D1"/>
            <path d="M1251.65 171.155C1251.65 172.586 1252.81 173.746 1254.24 173.746C1255.67 173.746 1256.82 172.586 1256.82 171.155C1256.82 169.725 1255.67 168.565 1254.24 168.565C1252.81 168.565 1251.65 169.725 1251.65 171.155Z" fill="#4A74D1"/>
            <path d="M1268.68 225.848C1268.68 227.278 1269.84 228.438 1271.27 228.438C1272.7 228.438 1273.86 227.278 1273.86 225.848C1273.86 224.417 1272.7 223.257 1271.27 223.257C1269.84 223.257 1268.68 224.417 1268.68 225.848Z" fill="#4A74D1"/>
            <path d="M1582.2 345.248C1580.77 345.248 1579.61 344.088 1579.61 342.658C1579.61 341.227 1580.77 340.067 1582.2 340.067C1583.63 340.067 1584.79 341.227 1584.79 342.658C1584.79 344.088 1583.63 345.248 1582.2 345.248Z" fill="#4A74D1"/>
            <path d="M1459.33 527.037C1459.33 528.468 1460.49 529.627 1461.92 529.627C1463.35 529.627 1464.51 528.468 1464.51 527.037C1464.51 525.606 1463.35 524.447 1461.92 524.447C1460.49 524.447 1459.33 525.606 1459.33 527.037Z" fill="#4A74D1"/>
            <path d="M1541.36 412.164C1541.36 413.595 1542.52 414.754 1543.95 414.754C1545.37 414.754 1546.53 413.595 1546.53 412.164C1546.53 410.733 1545.37 409.573 1543.95 409.573C1542.52 409.573 1541.36 410.733 1541.36 412.164Z" fill="#4A74D1"/>
            <path d="M1399.22 419.404C1399.22 420.835 1400.38 421.995 1401.81 421.995C1403.24 421.995 1404.4 420.835 1404.4 419.404C1404.4 417.973 1403.24 416.814 1401.81 416.814C1400.38 416.814 1399.22 417.973 1399.22 419.404Z" fill="#4A74D1"/>
            <path d="M1235.59 563.092C1234.16 563.092 1233 561.932 1233 560.501C1233 559.071 1234.16 557.911 1235.59 557.911C1237.02 557.911 1238.18 559.071 1238.18 560.501C1238.18 561.932 1237.02 563.092 1235.59 563.092Z" fill="#4A74D1"/>
            <path d="M1318.21 600.404C1318.21 601.835 1319.36 602.995 1320.79 602.995C1322.22 602.995 1323.38 601.835 1323.38 600.404C1323.38 598.973 1322.22 597.814 1320.79 597.814C1319.36 597.814 1318.21 598.973 1318.21 600.404Z" fill="#4A74D1"/>
            <path d="M1336.2 687.919C1336.2 689.35 1337.36 690.509 1338.79 690.509C1340.22 690.509 1341.38 689.35 1341.38 687.919C1341.38 686.488 1340.22 685.329 1338.79 685.329C1337.36 685.329 1336.2 686.488 1336.2 687.919Z" fill="#4A74D1"/>
            <path d="M1389.01 683.343C1389.01 684.774 1390.17 685.933 1391.6 685.933C1393.03 685.933 1394.19 684.774 1394.19 683.343C1394.19 681.912 1393.03 680.753 1391.6 680.753C1390.17 680.753 1389.01 681.912 1389.01 683.343Z" fill="#4A74D1"/>
            <path d="M1496.33 703.041C1496.33 704.472 1497.49 705.632 1498.92 705.632C1500.35 705.632 1501.51 704.472 1501.51 703.041C1501.51 701.611 1500.35 700.451 1498.92 700.451C1497.49 700.451 1496.33 701.611 1496.33 703.041Z" fill="#4A74D1"/>
            <path d="M1550.37 662.522C1548.94 662.522 1547.78 661.362 1547.78 659.932C1547.78 658.501 1548.94 657.341 1550.37 657.341C1551.8 657.341 1552.96 658.501 1552.96 659.932C1552.96 661.362 1551.8 662.522 1550.37 662.522Z" fill="#4A74D1"/>
            <path d="M1589.57 672.155C1589.57 673.586 1590.73 674.746 1592.16 674.746C1593.59 674.746 1594.75 673.586 1594.75 672.155C1594.75 670.724 1593.59 669.565 1592.16 669.565C1590.73 669.565 1589.57 670.724 1589.57 672.155Z" fill="#4A74D1"/>
            <path d="M1358.07 84.5903C1358.07 86.0211 1359.22 87.1806 1360.65 87.1806C1362.08 87.1806 1363.24 86.0211 1363.24 84.5903C1363.24 83.1595 1362.08 82 1360.65 82C1359.22 82 1358.07 83.1595 1358.07 84.5903Z" fill="#4A74D1"/>
            <path d="M1529.45 148.953C1529.45 150.384 1530.61 151.543 1532.04 151.543C1533.47 151.543 1534.63 150.384 1534.63 148.953C1534.63 147.522 1533.47 146.363 1532.04 146.363C1530.61 146.363 1529.45 147.522 1529.45 148.953Z" fill="#4A74D1"/>
            <path d="M1496.01 117.092C1496.01 118.523 1497.17 119.683 1498.6 119.683C1500.03 119.683 1501.19 118.523 1501.19 117.092C1501.19 115.661 1500.03 114.502 1498.6 114.502C1497.17 114.502 1496.01 115.661 1496.01 117.092Z" fill="#4A74D1"/>
            <path d="M1388.62 145.733C1388.62 147.164 1389.78 148.324 1391.21 148.324C1392.64 148.324 1393.8 147.164 1393.8 145.733C1393.8 144.303 1392.64 143.143 1391.21 143.143C1389.78 143.143 1388.62 144.303 1388.62 145.733Z" fill="#4A74D1"/>
            <path d="M1549.98 350.86C1547.66 350.86 1545.77 348.972 1545.77 346.642C1545.77 344.312 1547.66 342.423 1549.98 342.423C1552.31 342.423 1554.2 344.312 1554.2 346.642C1554.2 348.972 1552.31 350.86 1549.98 350.86Z" fill="#4A74D1"/>
            <path d="M1476.35 146.215C1474.02 146.215 1472.14 144.326 1472.14 141.996C1472.14 139.666 1474.02 137.778 1476.35 137.778C1478.68 137.778 1480.57 139.666 1480.57 141.996C1480.57 144.326 1478.68 146.215 1476.35 146.215Z" fill="#4A74D1"/>
            <path d="M1281.85 337.354C1281.85 339.685 1283.73 341.572 1286.06 341.572C1288.39 341.572 1290.28 339.685 1290.28 337.354C1290.28 335.022 1288.39 333.135 1286.06 333.135C1283.73 333.135 1281.85 335.022 1281.85 337.354Z" fill="#4A74D1"/>
            <path d="M1288.92 140.578C1288.92 142.909 1290.81 144.796 1293.14 144.796C1295.47 144.796 1297.35 142.909 1297.35 140.578C1297.35 138.246 1295.47 136.359 1293.14 136.359C1290.81 136.359 1288.92 138.246 1288.92 140.578Z" fill="#4A74D1"/>
            <path d="M1406.6 464.932C1406.6 467.263 1408.49 469.15 1410.82 469.15C1413.15 469.15 1415.03 467.263 1415.03 464.932C1415.03 462.601 1413.15 460.713 1410.82 460.713C1408.49 460.713 1406.6 462.601 1406.6 464.932Z" fill="#4A74D1"/>
            <path d="M1316.94 490.23C1314.61 490.23 1312.72 488.342 1312.72 486.012C1312.72 483.682 1314.61 481.793 1316.94 481.793C1319.26 481.793 1321.15 483.682 1321.15 486.012C1321.15 488.342 1319.26 490.23 1316.94 490.23Z" fill="#4A74D1"/>
            <path d="M1569.3 610.691C1569.3 613.023 1571.18 614.91 1573.51 614.91C1575.84 614.91 1577.73 613.023 1577.73 610.691C1577.73 608.36 1575.84 606.473 1573.51 606.473C1571.18 606.473 1569.3 608.36 1569.3 610.691Z" fill="#4A74D1"/>
            <path d="M1399.25 650.631C1396.92 650.631 1395.03 648.742 1395.03 646.413C1395.03 644.083 1396.92 642.194 1399.25 642.194C1401.57 642.194 1403.46 644.083 1403.46 646.413C1403.46 648.742 1401.57 650.631 1399.25 650.631Z" fill="#4A74D1"/>
            <path d="M1273.85 498.593C1271.52 498.593 1269.63 496.705 1269.63 494.375C1269.63 492.045 1271.52 490.156 1273.85 490.156C1276.17 490.156 1278.06 492.045 1278.06 494.375C1278.06 496.705 1276.17 498.593 1273.85 498.593Z" fill="#4A74D1"/>
            <path d="M1342.92 254.97C1340.59 254.97 1338.7 253.081 1338.7 250.752C1338.7 248.422 1340.59 246.533 1342.92 246.533C1345.25 246.533 1347.13 248.422 1347.13 250.752C1347.13 253.081 1345.25 254.97 1342.92 254.97Z" fill="#4A74D1"/>
            <path d="M1470.94 286.905C1467.88 286.905 1465.4 284.42 1465.4 281.354C1465.4 278.289 1467.88 275.803 1470.94 275.803C1474.01 275.803 1476.49 278.289 1476.49 281.354C1476.49 284.42 1474.01 286.905 1470.94 286.905Z" fill="#4A74D1"/>
            <path d="M1290.57 268.403C1287.51 268.403 1285.03 265.917 1285.03 262.852C1285.03 259.786 1287.51 257.301 1290.57 257.301C1293.63 257.301 1296.12 259.786 1296.12 262.852C1296.12 265.917 1293.63 268.403 1290.57 268.403Z" fill="#4A74D1"/>
            <path d="M1296.35 390.689C1293.29 390.689 1290.81 388.204 1290.81 385.138C1290.81 382.073 1293.29 379.588 1296.35 379.588C1299.42 379.588 1301.9 382.073 1301.9 385.138C1301.9 388.204 1299.42 390.689 1296.35 390.689Z" fill="#4A74D1"/>
            <path d="M1448.12 578.917C1445.05 578.917 1442.57 576.432 1442.57 573.367C1442.57 570.301 1445.05 567.816 1448.12 567.816C1451.18 567.816 1453.66 570.301 1453.66 573.367C1453.66 576.432 1451.18 578.917 1448.12 578.917Z" fill="#4A74D1"/>
            <path d="M1369.18 537.411C1366.12 537.411 1363.64 534.926 1363.64 531.86C1363.64 528.795 1366.12 526.31 1369.18 526.31C1372.25 526.31 1374.73 528.795 1374.73 531.86C1374.73 534.926 1372.25 537.411 1369.18 537.411Z" fill="#4A74D1"/>
            <path d="M1518.37 543.923C1515.31 543.923 1512.82 541.438 1512.82 538.373C1512.82 535.307 1515.31 532.822 1518.37 532.822C1521.43 532.822 1523.92 535.307 1523.92 538.373C1523.92 541.438 1521.43 543.923 1518.37 543.923Z" fill="#4A74D1"/>
            <path d="M1500.86 653.419C1497.79 653.419 1495.31 650.934 1495.31 647.868C1495.31 644.803 1497.79 642.318 1500.86 642.318C1503.92 642.318 1506.4 644.803 1506.4 647.868C1506.4 650.934 1503.92 653.419 1500.86 653.419Z" fill="#4A74D1"/>
            <path d="M1564.52 466.782C1561.45 466.782 1558.97 464.297 1558.97 461.231C1558.97 458.166 1561.45 455.681 1564.52 455.681C1567.58 455.681 1570.06 458.166 1570.06 461.231C1570.06 464.297 1567.58 466.782 1564.52 466.782Z" fill="#4A74D1"/>
        </g>
        <g opacity="0.1">
            <path d="M46.9251 142.143L43.9317 303.82L-107.712 363.086L1.3732 244.173L43.9317 303.82" stroke="url(#paint19_linear_1_14032)" stroke-width="0.75" stroke-miterlimit="10"/>
            <path d="M220.329 143.326L157.196 177.155L143.764 235.443L112.742 230.507L43.9317 303.82L99.9472 295.707L141.349 300.7L112.742 230.507L1.37327 244.173" stroke="url(#paint20_linear_1_14032)" stroke-width="0.75" stroke-miterlimit="10"/>
            <path d="M-169.607 -110.3L-212.54 -67.5425L-65.2137 13.8327L-42.2596 98.9837L-94.316 113.41L-133.709 209.059L-78.0288 265.301L1.37306 244.173L46.925 142.143L220.329 143.326L284.846 267.856L157.196 177.155L46.925 142.143L112.742 230.507L157.196 177.155" stroke="url(#paint21_linear_1_14032)" stroke-width="0.75" stroke-miterlimit="10"/>
            <path d="M112.742 230.507L99.9471 295.707" stroke="url(#paint22_linear_1_14032)" stroke-width="0.75" stroke-miterlimit="10"/>
            <path d="M43.9318 303.82L90.5137 346.342" stroke="url(#paint23_linear_1_14032)" stroke-width="0.75" stroke-miterlimit="10"/>
            <path d="M284.846 267.856L337.145 231.464" stroke="url(#paint24_linear_1_14032)" stroke-width="0.75" stroke-miterlimit="10"/>
            <path d="M46.925 142.143L-7.95835 149.28" stroke="url(#paint25_linear_1_14032)" stroke-width="0.75" stroke-miterlimit="10"/>
            <path d="M32.0957 514.951L3.59159 444.487L-134.827 459.059" stroke="url(#paint26_linear_1_14032)" stroke-width="0.75" stroke-miterlimit="10"/>
            <path d="M3.59153 444.487L-16.1246 525.855L80.5136 588.637L143.087 541.542L204.936 574.947L166.584 664.964L80.5136 588.637" stroke="url(#paint27_linear_1_14032)" stroke-width="0.75" stroke-miterlimit="10"/>
            <path d="M166.584 664.964L275.595 657.073L407.218 655.453L483.186 738.332L528.119 687.043L407.218 655.453L306.385 574.31L275.595 657.073L204.936 574.946L80.5137 588.637L32.0958 514.951L-16.1245 525.855L-134.827 459.059L-173.394 320.151L-107.712 363.086L-78.0287 265.301L-135.946 272.215L-210.98 180.353L-218.74 64.9519L-355.022 -7.89615" stroke="url(#paint28_linear_1_14032)" stroke-width="0.75" stroke-miterlimit="10"/>
            <path d="M407.218 655.453L449.163 623.516L528.119 687.043L591.09 674.901" stroke="url(#paint29_linear_1_14032)" stroke-width="0.75" stroke-miterlimit="10"/>
            <path d="M449.163 623.517L306.385 574.31" stroke="url(#paint30_linear_1_14032)" stroke-width="0.75" stroke-miterlimit="10"/>
            <path d="M80.57 591.374C78.8809 590.733 78.0316 588.843 78.6731 587.152C79.3147 585.462 81.204 584.611 82.8932 585.252C84.5823 585.893 85.4316 587.783 84.7901 589.474C84.1486 591.164 82.2592 592.015 80.57 591.374Z" fill="#41469E"/>
            <path d="M203.116 578.925C201.427 578.284 200.578 576.394 201.22 574.704C201.861 573.013 203.75 572.162 205.44 572.804C207.129 573.445 207.978 575.335 207.336 577.025C206.695 578.715 204.806 579.566 203.116 578.925Z" fill="#41469E"/>
            <path d="M405.118 654.276C404.478 655.962 405.33 657.857 407.015 658.497C408.701 659.137 410.595 658.284 411.235 656.597C411.875 654.91 411.024 653.015 409.339 652.375C407.653 651.736 405.759 652.589 405.118 654.276Z" fill="#41469E"/>
            <path d="M526.44 689.837C524.751 689.196 523.901 687.305 524.543 685.615C525.185 683.925 527.074 683.074 528.763 683.715C530.452 684.356 531.301 686.246 530.66 687.936C530.018 689.627 528.129 690.478 526.44 689.837Z" fill="#41469E"/>
            <path d="M0.21163 247.233C-1.47752 246.592 -2.32678 244.702 -1.68526 243.012C-1.04374 241.321 0.845645 240.471 2.53479 241.112C4.22394 241.753 5.0732 243.643 4.43168 245.333C3.79016 247.024 1.90078 247.874 0.21163 247.233Z" fill="#41469E"/>
            <path d="M-1.06508 443.649C-1.9817 446.064 -0.768718 448.764 1.64477 449.68C4.05825 450.596 6.75674 449.38 7.67336 446.965C8.58998 444.55 7.37706 441.85 4.96357 440.934C2.55009 440.019 -0.148462 441.234 -1.06508 443.649Z" fill="#41469E"/>
            <path d="M28.222 512.552C27.3053 514.967 28.5183 517.667 30.9318 518.582C33.3453 519.498 36.0438 518.283 36.9605 515.868C37.8771 513.453 36.6641 510.753 34.2506 509.837C31.8371 508.921 29.1386 510.136 28.222 512.552Z" fill="#41469E"/>
            <path d="M136.856 541.654C135.939 544.069 137.152 546.769 139.566 547.685C141.979 548.601 144.678 547.386 145.595 544.97C146.511 542.555 145.298 539.856 142.885 538.94C140.471 538.024 137.773 539.239 136.856 541.654Z" fill="#41469E"/>
            <path d="M161.784 662.499C160.867 664.914 162.08 667.614 164.493 668.53C166.907 669.446 169.605 668.23 170.522 665.815C171.439 663.4 170.226 660.7 167.812 659.785C165.399 658.869 162.7 660.084 161.784 662.499Z" fill="#41469E"/>
            <path d="M271.296 653.726C270.379 656.141 271.592 658.841 274.005 659.757C276.419 660.673 279.117 659.458 280.034 657.042C280.951 654.627 279.738 651.928 277.324 651.012C274.911 650.096 272.212 651.311 271.296 653.726Z" fill="#41469E"/>
            <path d="M302.869 572.976C301.952 575.391 303.165 578.09 305.579 579.006C307.992 579.922 310.691 578.707 311.607 576.292C312.524 573.877 311.311 571.177 308.898 570.261C306.484 569.345 303.786 570.56 302.869 572.976Z" fill="#41469E"/>
            <path d="M443.78 621.331C442.863 623.746 444.076 626.446 446.49 627.362C448.903 628.277 451.602 627.062 452.519 624.647C453.435 622.232 452.222 619.532 449.809 618.616C447.395 617.7 444.697 618.915 443.78 621.331Z" fill="#41469E"/>
            <path d="M478.468 736.089C477.551 738.504 478.764 741.204 481.177 742.12C483.591 743.036 486.289 741.821 487.206 739.405C488.123 736.99 486.91 734.291 484.496 733.375C482.083 732.459 479.384 733.674 478.468 736.089Z" fill="#41469E"/>
            <path d="M589.348 679.242C586.935 678.326 585.722 675.626 586.638 673.211C587.554 670.797 590.254 669.581 592.667 670.497C595.08 671.413 596.293 674.113 595.377 676.528C594.46 678.943 591.761 680.158 589.348 679.242Z" fill="#41469E"/>
            <path d="M39.8736 300.589C38.957 303.004 40.17 305.704 42.5834 306.62C44.9969 307.535 47.6955 306.32 48.6121 303.905C49.5287 301.49 48.3157 298.79 45.9022 297.874C43.4887 296.959 40.7902 298.174 39.8736 300.589Z" fill="#41469E"/>
            <path d="M136.209 297.059C135.292 299.474 136.505 302.173 138.919 303.089C141.332 304.005 144.031 302.79 144.948 300.375C145.864 297.959 144.651 295.26 142.238 294.344C139.824 293.428 137.126 294.643 136.209 297.059Z" fill="#41469E"/>
            <path d="M280.456 266.19C279.539 268.605 280.752 271.305 283.165 272.221C285.579 273.137 288.277 271.922 289.194 269.506C290.111 267.091 288.898 264.391 286.484 263.476C284.071 262.56 281.372 263.775 280.456 266.19Z" fill="#41469E"/>
            <path d="M331.591 229.666C330.675 232.081 331.888 234.781 334.301 235.696C336.715 236.612 339.413 235.397 340.33 232.982C341.246 230.567 340.033 227.867 337.62 226.951C335.207 226.035 332.508 227.251 331.591 229.666Z" fill="#41469E"/>
            <path d="M214.472 141.889C213.555 144.305 214.768 147.004 217.181 147.92C219.595 148.836 222.293 147.621 223.21 145.206C224.127 142.79 222.914 140.091 220.5 139.175C218.087 138.259 215.388 139.474 214.472 141.889Z" fill="#41469E"/>
            <path d="M41.9564 141.187C41.0398 143.602 42.2527 146.302 44.6662 147.217C47.0797 148.133 49.7782 146.918 50.6948 144.503C51.6115 142.088 50.3985 139.388 47.985 138.472C45.5715 137.556 42.873 138.772 41.9564 141.187Z" fill="#41469E"/>
            <path d="M39.219 238.026C38.3024 240.441 39.5154 243.141 41.9289 244.057C44.3424 244.973 47.0409 243.758 47.9575 241.342C48.8742 238.927 47.6612 236.228 45.2477 235.312C42.8342 234.396 40.1357 235.611 39.219 238.026Z" fill="#41469E"/>
            <path d="M108.402 229.337C107.485 231.752 108.698 234.451 111.112 235.367C113.525 236.283 116.224 235.068 117.14 232.653C118.057 230.238 116.844 227.538 114.431 226.622C112.017 225.706 109.319 226.921 108.402 229.337Z" fill="#41469E"/>
            <path d="M153.062 175.443C152.145 177.858 153.358 180.558 155.772 181.474C158.185 182.39 160.884 181.175 161.8 178.759C162.717 176.344 161.504 173.645 159.09 172.729C156.677 171.813 153.978 173.028 153.062 175.443Z" fill="#41469E"/>
            <path d="M139.624 234.182C138.708 236.598 139.921 239.297 142.334 240.213C144.748 241.129 147.446 239.914 148.363 237.499C149.279 235.083 148.066 232.384 145.653 231.468C143.239 230.552 140.541 231.767 139.624 234.182Z" fill="#41469E"/>
            <path d="M96.5824 293.597C95.6658 296.012 96.8787 298.712 99.2922 299.628C101.706 300.544 104.404 299.329 105.321 296.913C106.237 294.498 105.024 291.799 102.611 290.883C100.197 289.967 97.499 291.182 96.5824 293.597Z" fill="#41469E"/>
            <path d="M85.9244 343.696C85.0078 346.111 86.2207 348.811 88.6342 349.727C91.0477 350.643 93.7463 349.428 94.6629 347.012C95.5795 344.597 94.3665 341.898 91.953 340.982C89.5395 340.066 86.841 341.281 85.9244 343.696Z" fill="#41469E"/>
        </g>
    </g>
    <defs>
        <linearGradient id="paint0_linear_1_14032" x1="1676.71" y1="190.854" x2="1549.49" y2="190.854" gradientUnits="userSpaceOnUse">
            <stop stop-color="#2F3288"/>
            <stop offset="1" stop-color="#1C1666"/>
        </linearGradient>
        <linearGradient id="paint1_linear_1_14032" x1="1832.22" y1="235.222" x2="1564.8" y2="235.222" gradientUnits="userSpaceOnUse">
            <stop stop-color="#2F3288"/>
            <stop offset="1" stop-color="#1C1666"/>
        </linearGradient>
        <linearGradient id="paint2_linear_1_14032" x1="1700.98" y1="483.273" x2="1288.24" y2="483.273" gradientUnits="userSpaceOnUse">
            <stop stop-color="#2656BD"/>
            <stop offset="1" stop-color="#221E77"/>
        </linearGradient>
        <linearGradient id="paint3_linear_1_14032" x1="1677" y1="341.054" x2="1581.65" y2="341.054" gradientUnits="userSpaceOnUse">
            <stop stop-color="#2656BD"/>
            <stop offset="1" stop-color="#221E77"/>
        </linearGradient>
        <linearGradient id="paint4_linear_1_14032" x1="1295.16" y1="608.446" x2="1273.11" y2="608.446" gradientUnits="userSpaceOnUse">
            <stop stop-color="#2656BD"/>
            <stop offset="1" stop-color="#221E77"/>
        </linearGradient>
        <linearGradient id="paint5_linear_1_14032" x1="1449.2" y1="570.159" x2="1235.91" y2="570.159" gradientUnits="userSpaceOnUse">
            <stop stop-color="#2656BD"/>
            <stop offset="1" stop-color="#221E77"/>
        </linearGradient>
        <linearGradient id="paint6_linear_1_14032" x1="1500.37" y1="394.488" x2="1295.17" y2="394.488" gradientUnits="userSpaceOnUse">
            <stop stop-color="#2656BD"/>
            <stop offset="1" stop-color="#221E77"/>
        </linearGradient>
        <linearGradient id="paint7_linear_1_14032" x1="1614.66" y1="314.719" x2="1426.24" y2="314.719" gradientUnits="userSpaceOnUse">
            <stop stop-color="#2656BD"/>
            <stop offset="1" stop-color="#221E77"/>
        </linearGradient>
        <linearGradient id="paint8_linear_1_14032" x1="1583.07" y1="304.79" x2="1341.6" y2="304.79" gradientUnits="userSpaceOnUse">
            <stop stop-color="#2656BD"/>
            <stop offset="1" stop-color="#221E77"/>
        </linearGradient>
        <linearGradient id="paint9_linear_1_14032" x1="1355.67" y1="323.724" x2="1265.23" y2="323.724" gradientUnits="userSpaceOnUse">
            <stop stop-color="#2656BD"/>
            <stop offset="1" stop-color="#221E77"/>
        </linearGradient>
        <linearGradient id="paint10_linear_1_14032" x1="1294.38" y1="200.907" x2="1254.35" y2="200.907" gradientUnits="userSpaceOnUse">
            <stop stop-color="#2656BD"/>
            <stop offset="1" stop-color="#221E77"/>
        </linearGradient>
        <linearGradient id="paint11_linear_1_14032" x1="1373.9" y1="510.546" x2="1271.18" y2="510.546" gradientUnits="userSpaceOnUse">
            <stop stop-color="#2656BD"/>
            <stop offset="1" stop-color="#221E77"/>
        </linearGradient>
        <linearGradient id="paint12_linear_1_14032" x1="1498.51" y1="130.13" x2="1475.53" y2="130.13" gradientUnits="userSpaceOnUse">
            <stop stop-color="#2656BD"/>
            <stop offset="1" stop-color="#221E77"/>
        </linearGradient>
        <linearGradient id="paint13_linear_1_14032" x1="1872.26" y1="606.831" x2="1573.25" y2="606.831" gradientUnits="userSpaceOnUse">
            <stop stop-color="#2656BD"/>
            <stop offset="1" stop-color="#221E77"/>
        </linearGradient>
        <linearGradient id="paint14_linear_1_14032" x1="1566.19" y1="479.03" x2="1400.86" y2="479.03" gradientUnits="userSpaceOnUse">
            <stop stop-color="#2656BD"/>
            <stop offset="1" stop-color="#221E77"/>
        </linearGradient>
        <linearGradient id="paint15_linear_1_14032" x1="1462.34" y1="550.041" x2="1447.41" y2="550.041" gradientUnits="userSpaceOnUse">
            <stop stop-color="#2656BD"/>
            <stop offset="1" stop-color="#221E77"/>
        </linearGradient>
        <linearGradient id="paint16_linear_1_14032" x1="1677.5" y1="402.148" x2="1445.24" y2="402.148" gradientUnits="userSpaceOnUse">
            <stop stop-color="#2656BD"/>
            <stop offset="1" stop-color="#221E77"/>
        </linearGradient>
        <linearGradient id="paint17_linear_1_14032" x1="1592.35" y1="660.092" x2="1500.66" y2="660.092" gradientUnits="userSpaceOnUse">
            <stop stop-color="#2656BD"/>
            <stop offset="1" stop-color="#221E77"/>
        </linearGradient>
        <linearGradient id="paint18_linear_1_14032" x1="1319.11" y1="435.809" x2="1295.64" y2="435.809" gradientUnits="userSpaceOnUse">
            <stop stop-color="#2656BD"/>
            <stop offset="1" stop-color="#221E77"/>
        </linearGradient>
        <linearGradient id="paint19_linear_1_14032" x1="51.9825" y1="285.366" x2="-63.8023" y2="241.425" gradientUnits="userSpaceOnUse">
            <stop stop-color="#2F3288"/>
            <stop offset="1" stop-color="#1C1666"/>
        </linearGradient>
        <linearGradient id="paint20_linear_1_14032" x1="182.951" y1="243.574" x2="24.0565" y2="183.273" gradientUnits="userSpaceOnUse">
            <stop stop-color="#2F3288"/>
            <stop offset="1" stop-color="#1C1666"/>
        </linearGradient>
        <linearGradient id="paint21_linear_1_14032" x1="299.343" y1="238.437" x2="-250.745" y2="29.6768" gradientUnits="userSpaceOnUse">
            <stop stop-color="#2F3288"/>
            <stop offset="1" stop-color="#1C1666"/>
        </linearGradient>
        <linearGradient id="paint22_linear_1_14032" x1="112.333" y1="265.392" x2="100.348" y2="260.844" gradientUnits="userSpaceOnUse">
            <stop stop-color="#2F3288"/>
            <stop offset="1" stop-color="#1C1666"/>
        </linearGradient>
        <linearGradient id="paint23_linear_1_14032" x1="94.9011" y1="335.597" x2="39.5157" y2="314.578" gradientUnits="userSpaceOnUse">
            <stop stop-color="#2F3288"/>
            <stop offset="1" stop-color="#1C1666"/>
        </linearGradient>
        <linearGradient id="paint24_linear_1_14032" x1="328.458" y1="256.299" x2="293.525" y2="243.042" gradientUnits="userSpaceOnUse">
            <stop stop-color="#2F3288"/>
            <stop offset="1" stop-color="#1C1666"/>
        </linearGradient>
        <linearGradient id="paint25_linear_1_14032" x1="42.6403" y1="154.5" x2="-3.67363" y2="136.924" gradientUnits="userSpaceOnUse">
            <stop stop-color="#2F3288"/>
            <stop offset="1" stop-color="#1C1666"/>
        </linearGradient>
        <linearGradient id="paint26_linear_1_14032" x1="41.3862" y1="492.227" x2="-124" y2="429.462" gradientUnits="userSpaceOnUse">
            <stop stop-color="#2F3288"/>
            <stop offset="1" stop-color="#1C1666"/>
        </linearGradient>
        <linearGradient id="paint27_linear_1_14032" x1="197.173" y1="597.846" x2="-23.7021" y2="514.023" gradientUnits="userSpaceOnUse">
            <stop stop-color="#2F3288"/>
            <stop offset="1" stop-color="#1C1666"/>
        </linearGradient>
        <linearGradient id="paint28_linear_1_14032" x1="569.884" y1="580.504" x2="-433.855" y2="199.581" gradientUnits="userSpaceOnUse">
            <stop stop-color="#2F3288"/>
            <stop offset="1" stop-color="#1C1666"/>
        </linearGradient>
        <linearGradient id="paint29_linear_1_14032" x1="583.209" y1="696.922" x2="414.973" y2="633.075" gradientUnits="userSpaceOnUse">
            <stop stop-color="#2F3288"/>
            <stop offset="1" stop-color="#1C1666"/>
        </linearGradient>
        <linearGradient id="paint30_linear_1_14032" x1="448.354" y1="625.711" x2="307.186" y2="572.137" gradientUnits="userSpaceOnUse">
            <stop stop-color="#2F3288"/>
            <stop offset="1" stop-color="#1C1666"/>
        </linearGradient>
        <clipPath id="clip0_1_14032">
            <rect width="1600" height="836" fill="white"/>
        </clipPath>
    </defs>
</svg>
